<svg width="24" height="24" viewBox="0 0 24 24" fill="none" xmlns="http://www.w3.org/2000/svg">
<g clip-path="url(#clip0_449_1357)">
<path d="M12.0001 21C11.8685 21.0008 11.738 20.9755 11.6162 20.9258C11.4944 20.876 11.3836 20.8027 11.2901 20.71L3.52012 12.93C2.54548 11.9452 1.99878 10.6156 1.99878 9.23C1.99878 7.84443 2.54548 6.51482 3.52012 5.53C4.50238 4.55051 5.83295 4.00047 7.22012 4.00047C8.60728 4.00047 9.93785 4.55051 10.9201 5.53L12.0001 6.61L13.0801 5.53C14.0624 4.55051 15.3929 4.00047 16.7801 4.00047C18.1673 4.00047 19.4979 4.55051 20.4801 5.53C21.4548 6.51482 22.0015 7.84443 22.0015 9.23C22.0015 10.6156 21.4548 11.9452 20.4801 12.93L12.7101 20.71C12.6167 20.8027 12.5059 20.876 12.384 20.9258C12.2622 20.9755 12.1317 21.0008 12.0001 21Z" fill="#12CDD9"/>
</g>
<defs>
<clipPath id="clip0_449_1357">
<rect width="24" height="24" fill="white"/>
</clipPath>
</defs>
</svg>
