<svg width="24" height="24" viewBox="0 0 24 24" fill="none" xmlns="http://www.w3.org/2000/svg">
<g clip-path="url(#clip0_449_1375)">
<path d="M6.07375 23.9796L6.5156 23.8561C6.9406 23.7373 7.18884 23.2965 7.07008 22.8715L2.01837 4.79339C1.94709 4.53826 1.77737 4.3219 1.54656 4.19191C1.31575 4.06192 1.04275 4.02895 0.787628 4.10024L0.730566 4.11617C0.199267 4.26462 -0.1111 4.81566 0.0373391 5.34696L5.08917 23.4251C5.20793 23.8501 5.64874 24.0984 6.07375 23.9796V23.9796Z" fill="#12CDD9"/>
<path d="M23.8635 11.3462C22.2615 10.5474 20.7794 9.52781 19.4607 8.31724C19.3499 8.21577 19.3065 8.06001 19.349 7.91586C20.0024 5.44394 20.4876 2.9306 20.8014 0.393104C20.851 -0.0289644 20.6235 -0.153102 20.3835 0.136553C15.6745 5.76827 7.5269 -0.893792 2.67725 4.22483C2.73547 4.33384 2.78127 4.44904 2.8138 4.56827L6.09104 16.3034C10.949 11.2469 19.0676 17.8676 23.7683 12.2483C24.0083 11.9586 24.0538 11.429 23.8635 11.3462V11.3462Z" fill="#12CDD9"/>
</g>
<defs>
<clipPath id="clip0_449_1375">
<rect width="24" height="24" fill="white"/>
</clipPath>
</defs>
</svg>
