<svg width="24" height="24" viewBox="0 0 24 24" fill="none" xmlns="http://www.w3.org/2000/svg">
<path d="M14.7825 19.3389C14.7825 20.3288 14.2547 21.0864 13.3977 21.5816C12.5409 22.0765 11.4851 22.0765 10.6299 21.5816C9.77258 21.0864 9.24512 20.3288 9.24512 19.3389" fill="#12CDD9"/>
<path d="M12.0132 2.05547C12.7684 2.05547 13.3767 2.52107 13.3767 3.23707C13.3767 3.68773 13.3924 4.024 13.6756 4.11013C16.0839 4.83733 17.6281 6.54187 17.6281 8.75547V12.476C17.6281 14.1805 18.3255 14.5256 19.2031 15.1776C20.474 16.1203 20.1839 18.0832 18.7255 18.0819H5.30145C3.84305 18.0832 3.55292 16.1203 4.82385 15.1776C5.70039 14.5256 6.39879 14.1805 6.39879 12.476V8.75547C6.39879 6.54187 7.94305 4.83733 10.3513 4.11013C10.6337 4.024 10.6503 3.68773 10.6503 3.23707C10.6505 2.52107 11.2591 2.05547 12.0132 2.05547V2.05547Z" fill="#12CDD9"/>
</svg>
